<svg width="128" height="144" viewBox="0 0 128 144" fill="none" xmlns="http://www.w3.org/2000/svg">
<rect width="128" height="144" rx="4" fill="url(#paint0_linear)"/>
<path d="M63.9336 78.64C67.6302 78.64 70.6269 75.6433 70.6269 71.9466C70.6269 68.25 67.6302 65.2533 63.9336 65.2533C60.2369 65.2533 57.2402 68.25 57.2402 71.9466C57.2402 75.6433 60.2369 78.64 63.9336 78.64Z" fill="white"/>
<path d="M63.9332 87.28C54.5332 87.28 46.3199 86.1734 40.1732 84.0667C36.1866 82.7067 32.7999 80.8934 30.3866 78.8267C27.8266 76.64 26.4666 74.2534 26.4666 71.9467C26.4666 67.52 31.3199 63.1867 39.4666 60.36C46.1332 58.04 54.8266 56.7467 63.9199 56.7467C72.8532 56.7467 81.4266 58 88.0532 60.2934C91.9332 61.6267 95.1999 63.36 97.5199 65.28C100.04 67.3867 101.373 69.6934 101.373 71.9467C101.373 76.5467 95.9466 81.2 87.1999 84.0934C81.0132 86.1467 72.7466 87.28 63.9332 87.28ZM63.9332 59.9467C55.3066 59.9467 46.7732 61.2 40.5332 63.3734C33.0399 65.9867 29.6799 69.56 29.6799 71.9467C29.6799 74.4267 33.2932 78.3334 41.2132 81.04C47.0266 83.0267 54.8932 84.08 63.9332 84.08C72.4132 84.08 80.3199 83.0134 86.1999 81.0534C94.4266 78.32 98.1866 74.4134 98.1866 71.9467C98.1866 70.68 97.2266 69.1867 95.4799 67.7334C93.4666 66.0534 90.5332 64.52 87.0266 63.3067C80.7199 61.1467 72.5199 59.9467 63.9332 59.9467Z" fill="white"/>
<path d="M48.7467 105.307C47.3867 105.307 46.1867 105.013 45.1734 104.427C41.3467 102.213 40.0134 95.8401 41.6267 87.3734C42.9467 80.4267 46.1734 72.2667 50.72 64.3867C55.1867 56.6534 60.5467 49.8534 65.84 45.2534C68.9333 42.56 72.0667 40.5867 74.8933 39.5467C77.9734 38.4134 80.64 38.4134 82.5867 39.5334C86.5733 41.8267 87.8933 48.8667 86.0267 57.8801C84.7067 64.2801 81.56 72.0001 77.16 79.6401C72.4667 87.7734 67.4 94.3334 62.5067 98.6134C59.3333 101.387 56.0667 103.413 53.08 104.467C51.52 105.027 50.0534 105.307 48.7467 105.307ZM52.0934 65.1867L53.48 65.9867C49.1734 73.4534 45.9867 81.4667 44.76 87.9734C43.28 95.7734 44.7067 100.467 46.76 101.653C47.2667 101.947 47.9334 102.107 48.7467 102.107C51.4 102.107 55.5734 100.427 60.4 96.2134C65.0267 92.1734 69.8667 85.8801 74.3867 78.0534C78.6267 70.7067 81.64 63.3201 82.8933 57.2534C84.64 48.76 83.1333 43.56 80.9867 42.32C79.8933 41.6934 78.12 41.7734 75.9867 42.56C73.52 43.4667 70.7333 45.24 67.9333 47.68C62.9067 52.0534 57.7733 58.5601 53.48 66.0001L52.0934 65.1867Z" fill="white"/>
<path d="M79.1202 105.347C75.4936 105.347 70.8936 103.16 66.0936 99.0267C60.7336 94.4134 55.2802 87.5467 50.7202 79.6667C46.2402 71.9334 43.0402 63.8934 41.6936 57C40.9069 52.9734 40.7602 49.28 41.2669 46.3067C41.8269 43.0667 43.1469 40.76 45.1069 39.6267C49.0802 37.32 55.8402 39.6934 62.7202 45.8134C67.6002 50.1467 72.7202 56.7334 77.1336 64.3601C81.8402 72.4934 85.0002 80.1601 86.2536 86.5334C87.0669 90.6667 87.2002 94.5067 86.6269 97.6267C86.0136 100.947 84.6269 103.307 82.6269 104.467C81.6269 105.053 80.4402 105.347 79.1202 105.347ZM53.4936 78.0667C57.8136 85.5334 63.1736 92.2934 68.1869 96.6001C74.2002 101.773 78.9736 102.893 81.0402 101.693C83.1869 100.453 84.7602 95.3734 83.1336 87.1601C81.9336 81.1334 78.9069 73.8001 74.3736 65.9734C70.1202 58.6267 65.2269 52.32 60.6002 48.2134C54.1202 42.4534 48.8669 41.16 46.7202 42.4C45.6269 43.0267 44.8136 44.6134 44.4269 46.8534C43.9869 49.44 44.1202 52.7467 44.8402 56.3867C46.1202 62.9334 49.1869 70.6267 53.4936 78.0667Z" fill="white"/>
<defs>
<linearGradient id="paint0_linear" x1="128" y1="144" x2="4.76837e-07" y2="-4.23855e-07" gradientUnits="userSpaceOnUse">
<stop stop-color="#4481EB"/>
<stop offset="1" stop-color="#04BEFE"/>
</linearGradient>
</defs>
</svg>
