<svg width="248" height="441" viewBox="0 0 248 441" fill="none" xmlns="http://www.w3.org/2000/svg">
<g clip-path="url(#clip0)">
<path d="M248.001 406.579V410L245.634 413.421V407.368L248.001 406.579Z" fill="#7E412D"/>
<path d="M24.9712 409.474V413.684L28.1273 415.789L29.1793 410.789L24.9712 409.474Z" fill="#7E412D"/>
<path d="M72.3125 421.579L33.9137 409.211C33.9137 409.211 26.2865 407.369 24.9715 412.105C24.4455 414.211 25.4975 416.316 27.3385 417.369C34.4397 421.579 56.5322 433.684 72.5755 434.211L205.656 434.737C206.182 434.737 206.708 434.737 207.234 434.474C212.758 432.632 248 420.263 248 410C248 403.158 206.182 422.105 206.182 422.105L72.3125 421.579Z" fill="#7E412D"/>
<path d="M72.3125 418.421L33.9137 406.053C33.9137 406.053 26.5495 404.211 24.9715 408.684C24.1825 410.79 25.2345 412.895 27.0755 413.947C34.1767 418.158 56.2692 430.263 72.3125 430.789L206.182 431.316C206.182 431.316 247.737 417.895 247.737 406.579C247.737 399.737 205.919 418.684 205.919 418.684L72.3125 418.421Z" fill="#BC7153"/>
<path d="M86.7777 444.474C86.7777 450.263 82.3066 455 76.5205 455C70.7343 455 66.0002 450.526 66.0002 444.737C66.0002 438.947 70.4713 434.211 76.2575 434.211C82.0436 434.211 86.7777 438.684 86.7777 444.474Z" fill="#17161C"/>
<path d="M204.605 444.474C204.605 450.263 200.134 455 194.347 455C188.561 455 183.827 450.526 183.827 444.737C183.827 438.947 188.298 434.211 194.084 434.211C199.608 434.211 204.342 438.684 204.605 444.474Z" fill="#17161C"/>
<path d="M197.503 444.474C197.503 446.316 195.925 447.895 194.084 448.158C192.243 448.158 190.665 446.579 190.402 444.737C190.402 442.895 191.98 441.316 193.821 441.053C195.662 440.79 197.503 442.632 197.503 444.474Z" fill="#C6C6C6"/>
<path d="M-1.85583 373.947L23.1297 345.789L31.8089 361.052L6.56035 385.263L-1.85583 373.947Z" fill="#E2E2E2"/>
<path d="M0.24884 371.053C0.774853 370.263 0.24884 369.21 -0.540176 368.684C-2.11821 368.158 -5.01128 367.368 -8.95636 367.631C-16.0575 368.421 -17.8986 370.526 -17.8986 370.526L11.2951 428.421C14.4512 426.842 16.0292 423.421 15.5032 419.737L8.40202 388.158L11.0321 382.631C11.2951 382.105 10.7691 381.316 10.2431 381.316H5.24595C4.98294 381.842 -2.90723 377.368 0.24884 371.053Z" fill="#1D1C21"/>
<path d="M11.2184 428.826L-18.0667 370.807L-21.8228 372.705L7.46226 430.724L11.2184 428.826Z" fill="#EFEEED"/>
<path d="M72.8383 183.684L93.3528 309.21C95.1938 322.368 84.1476 333.684 70.9973 331.842C62.8441 330.789 56.2689 325 54.1649 316.842L26.8123 214.21C25.4973 209.21 25.4973 203.947 26.5493 198.947L31.2834 175.526L72.8383 183.684Z" fill="#060324"/>
<path d="M54.4276 298.158L8.92761 352.895L30.7571 376.842L85.7253 329.21C94.9305 321.053 95.9825 307.105 87.8294 297.895C79.1502 287.632 63.1068 287.632 54.4276 298.158Z" fill="#060324"/>
<path d="M114.656 409.211L119.653 370.526L137.275 368.684L128.333 405.789L114.656 409.211Z" fill="#E2E2E2"/>
<path d="M115.971 404.474C115.445 403.684 114.393 403.421 113.604 404.211C112.289 405.263 110.448 407.368 108.87 411.316C106.24 417.895 107.292 420.789 107.292 420.789L172.255 421.053C172.255 417.632 169.888 414.474 166.469 413.421L135.171 405.263L131.752 400.263C131.226 399.737 130.437 399.737 130.174 400.526L127.807 405C127.807 405 120.18 410.263 115.971 404.474Z" fill="#1D1C21"/>
<path d="M172.273 421.019L107.31 420.579L107.282 424.79L172.244 425.23L172.273 421.019Z" fill="#EFEEED"/>
<path d="M36.5436 227.895L115.445 213.158L90.9858 165L33.3876 170.526L36.5436 227.895Z" fill="#060324"/>
<path d="M115.445 285.526L110.711 375.789L142.798 381.053L156.211 309.474C158.578 297.368 150.425 285.789 138.327 283.684C125.177 281.053 115.971 272.105 115.445 285.526Z" fill="#060324"/>
<path d="M115.445 213.158L153.844 292.368C158.578 303.158 152.529 315.263 141.22 318.158C133.33 320 124.914 316.579 120.705 309.737L59.6881 213.158H115.445Z" fill="#060324"/>
<path d="M176.725 230L201.184 232.895C202.499 233.158 203.289 233.947 203.552 235.263C203.815 236.579 202.762 237.895 201.447 238.158L194.609 239.21L204.867 250.526C206.182 252.105 205.656 254.21 203.815 255L193.294 259.21C192.505 259.474 191.453 259.474 190.664 258.947C185.404 255.526 170.939 245 164.89 236.052L176.725 230Z" fill="#F9BFA1"/>
<path d="M107.818 103.158L111.237 179.474C111.763 188.947 121.757 195 130.173 190.789C134.907 188.684 140.167 181.053 140.167 176.053L137.537 102.368C137.537 94.2104 130.962 87.6315 122.809 87.6315C114.393 87.3683 107.555 94.4736 107.818 103.158Z" fill="#FC5B5B"/>
<path d="M135.696 168.947L185.141 229.21L169.098 243.158L115.182 188.421C108.607 181.842 111.763 170.526 120.705 168.158C125.439 166.842 132.54 165.526 135.696 168.947Z" fill="#FC5B5B"/>
<path d="M114.13 79.2104C114.13 79.2104 83.6213 70.5262 68.104 81.842C52.5867 93.1578 19.7109 184.21 19.7109 184.21C19.7109 184.21 41.5404 215.263 103.873 194.737C104.136 193.421 107.555 147.631 107.555 147.631C118.338 136.053 152.792 101.579 130.173 86.0525L114.13 79.2104Z" fill="#FC5B5B"/>
<path d="M109.922 145.263C109.922 145.263 118.338 134.737 128.332 120.263" stroke="#E54141" stroke-width="0.75" stroke-miterlimit="10"/>
<path d="M-8.95647 195.263L7.34989 213.684C8.13891 214.737 8.13891 216.053 7.6129 217.105C6.56087 218.158 5.24585 218.421 3.93082 217.895L-1.85531 214.211V229.474C-1.85531 231.316 -3.95935 232.895 -5.8004 232.105L-16.3206 228.421C-17.1096 227.895 -17.6357 227.105 -17.8987 226.316C-19.7397 220.263 -26.3148 201.579 -21.8437 192.105L-8.95647 195.263Z" fill="#F9BFA1"/>
<path d="M74.1534 78.6842L3.66784 107.632C-5.01135 111.316 -7.3784 122.632 -0.540251 129.21C3.14183 132.895 10.769 136.842 15.7661 135L77.3095 109.737C84.9366 107.105 88.8817 98.6842 86.2517 91.0526C83.3586 82.8947 82.0436 75.2631 74.1534 78.6842Z" fill="#FC5B5B"/>
<path d="M24.4451 126.316L-4.22254 199.737L-25 192.368L-3.95954 116.053C-1.59249 107.105 9.71676 104.21 16.2919 110.789C19.711 113.947 26.0231 121.842 24.4451 126.316Z" fill="#FC5B5B"/>
<path d="M43.9078 123.421L73.3645 111.316" stroke="#E54141" stroke-width="0.75" stroke-miterlimit="10"/>
<path d="M97.2979 76.3157L90.4597 75.7893C90.4597 75.7893 85.9886 92.1051 104.136 96.842C106.503 97.3683 108.87 97.6314 110.974 97.3683C115.445 96.842 122.546 94.2104 124.65 83.6841L120.968 82.1051L97.2979 76.3157Z" fill="#F5BFA1"/>
<path d="M96.5086 78.421L106.24 55.2632L130.436 65.2632L120.705 88.421C117.812 95 110.185 98.1579 103.61 95.5263C97.0346 92.8947 93.8785 85 96.5086 78.421Z" fill="#F5BFA1"/>
<path d="M107.818 48.9473C107.818 48.9473 98.3497 78.9473 121.494 86.5789L127.543 72.1052L107.818 48.9473Z" fill="#E39780"/>
<path d="M161.734 58.9473C160.682 63.421 156.211 66.3158 151.74 65.2631C147.269 64.2105 144.376 59.7368 145.428 55.2631C146.48 50.7894 150.951 47.8947 155.422 48.9473C160.156 49.7368 162.786 54.2105 161.734 58.9473Z" fill="#E39780"/>
<path d="M163.575 32.3684C163.575 32.3684 170.939 48.6842 152.266 52.3684L149.11 50C149.11 50 145.691 33.421 155.422 26.5789L163.575 32.3684Z" fill="#171E21"/>
<path d="M125.702 80.5263L124.913 80.2631C111.5 77.1052 103.347 63.9473 106.503 50.5263L112.815 23.421C113.604 20 117.023 17.8947 120.442 18.6842L152.266 26.0526C158.315 27.3684 162.26 33.6842 160.682 39.7368L155.422 62.1052C152.529 75.2631 139.116 83.6842 125.702 80.5263Z" fill="#F5BFA1"/>
<path d="M134.907 52.8947C134.644 53.9473 133.329 54.4736 132.277 54.2104C131.225 53.9473 130.699 52.6315 130.962 51.5789C131.225 50.5262 132.54 49.9999 133.592 50.2631C134.644 50.7894 135.17 51.842 134.907 52.8947Z" fill="#171E21"/>
<path d="M151.74 56.842C151.477 57.8947 150.162 58.421 149.11 58.1578C148.058 57.8947 147.532 56.5789 147.795 55.5263C148.058 54.4736 149.373 53.9473 150.425 54.2105C151.477 54.4736 152.003 55.7894 151.74 56.842Z" fill="#171E21"/>
<path d="M143.324 57.1052L142.535 62.8947C142.535 62.8947 141.483 65.7894 137.538 63.6841" stroke="#E39780" stroke-width="0.6122" stroke-miterlimit="10" stroke-linecap="round" stroke-linejoin="round"/>
<path d="M128.859 45.2632H129.122L138.064 47.1053C139.116 47.3684 139.905 46.579 140.168 45.5263C140.431 44.4737 139.642 43.6842 138.59 43.4211L130.174 41.8421C129.122 41.579 128.333 42.3684 128.07 43.4211C127.807 44.2105 128.07 45 128.859 45.2632Z" fill="#171E21"/>
<path d="M149.373 49.7368H149.636L155.16 50.7894C156.212 51.0526 157.264 50.2631 157.264 49.2105C157.527 48.1579 156.738 47.1052 155.686 47.1052L150.162 46.0526C149.11 45.7894 148.058 46.5789 148.058 47.6315C148.058 48.421 148.584 49.2105 149.373 49.7368Z" fill="#171E21"/>
<path d="M129.648 63.6841C129.648 63.6841 129.385 68.9473 138.59 69.9999" stroke="#E39780" stroke-width="0.6122" stroke-miterlimit="10" stroke-linecap="round" stroke-linejoin="round"/>
<path d="M108.344 46.842C108.344 46.842 122.547 49.2104 126.492 23.1578L113.341 12.6315L112.552 16.3157L108.344 46.842Z" fill="#171E21"/>
<path d="M108.87 44.2105L103.873 42.8947C103.873 42.8947 107.555 27.1052 106.24 22.3684C104.662 16.5789 109.659 -0.263211 121.494 5.2631C124.913 7.10521 128.858 7.89468 132.803 7.36837C133.855 7.10521 134.907 6.84205 135.96 6.57889C142.535 4.21047 147.795 -3.68426 159.893 2.63153C173.306 9.47363 179.092 30.7894 165.679 38.1578C157.526 42.6315 127.28 32.6315 123.335 27.3684L114.656 35.5263L108.87 44.2105Z" fill="#171E21"/>
<path d="M113.867 46.579C112.815 51.0527 108.344 53.9474 103.873 52.8948C99.4015 51.8422 96.5085 47.3685 97.5605 42.8948C98.6125 38.4211 103.084 35.5264 107.555 36.579C112.026 37.6316 114.919 42.1053 113.867 46.579Z" fill="#F5BFA1"/>
</g>
<defs>
<clipPath id="clip0">
</clipPath>
</defs>
</svg>
